HIERARCHY
ROOT Hips
{
	OFFSET 0.000000 0.000000 0.000000
	CHANNELS 6 Xposition Yposition Zposition Zrotation Yrotation Xrotation 
	JOINT LHipJoint
	{
		OFFSET 0.000000 0.000000 0.000000
		CHANNELS 3 Zrotation Yrotation Xrotation
		JOINT LeftUpLeg
		{
			OFFSET 1.363060 -1.794630 0.839290
			CHANNELS 3 Zrotation Yrotation Xrotation
			JOINT LeftLeg
			{
				OFFSET 2.448110 -6.726130 0.000000
				CHANNELS 3 Zrotation Yrotation Xrotation
				JOINT LeftFoot
				{
					OFFSET 2.562200 -7.039590 0.000000
					CHANNELS 3 Zrotation Yrotation Xrotation
					JOINT LeftToeBase
					{
						OFFSET 0.157640 -0.433110 2.322550
						CHANNELS 3 Zrotation Yrotation Xrotation
						End Site
						{
							OFFSET 0.000000 0.000000 0.000000
						}
					}
				}
			}
		}
	}
	JOINT RHipJoint
	{
		OFFSET 0.000000 0.000000 0.000000
		CHANNELS 3 Zrotation Yrotation Xrotation
		JOINT RightUpLeg
		{
			OFFSET -1.305520 -1.794630 0.839290
			CHANNELS 3 Zrotation Yrotation Xrotation
			JOINT RightLeg
			{
				OFFSET -2.542530 -6.985550 0.000000
				CHANNELS 3 Zrotation Yrotation Xrotation
				JOINT RightFoot
				{
					OFFSET -2.568260 -7.056230 0.000000
					CHANNELS 3 Zrotation Yrotation Xrotation
					JOINT RightToeBase
					{
						OFFSET -0.164730 -0.452590 2.363150
						CHANNELS 3 Zrotation Yrotation Xrotation
						End Site
						{
							OFFSET 0.000000 0.000000 0.000000
						}
					}
				}
			}
		}
	}
	JOINT LowerBack
	{
		OFFSET 0.000000 0.000000 0.000000
		CHANNELS 3 Zrotation Yrotation Xrotation
		JOINT Spine
		{
			OFFSET 0.028270 2.035590 -0.193380
			CHANNELS 3 Zrotation Yrotation Xrotation
			JOINT Spine1
			{
				OFFSET 0.056720 2.048850 -0.042750
				CHANNELS 3 Zrotation Yrotation Xrotation
				JOINT Neck
				{
					OFFSET 0.000000 0.000000 0.000000
					CHANNELS 3 Zrotation Yrotation Xrotation
					JOINT Neck1
					{
						OFFSET -0.054170 1.746240 0.172020
						CHANNELS 3 Zrotation Yrotation Xrotation
						JOINT Head
						{
							OFFSET 0.104070 1.761360 -0.123970
							CHANNELS 3 Zrotation Yrotation Xrotation
							End Site
							{
								OFFSET 0.000000 0.000000 0.000000
							}
						}
					}
				}
				JOINT LeftShoulder
				{
					OFFSET 0.000000 0.000000 0.000000
					CHANNELS 3 Zrotation Yrotation Xrotation
					JOINT LeftArm
					{
						OFFSET 3.362410 1.200890 -0.311210
						CHANNELS 3 Zrotation Yrotation Xrotation
						JOINT LeftForeArm
						{
							OFFSET 4.983000 -0.000000 -0.000000
							CHANNELS 3 Zrotation Yrotation Xrotation
							JOINT LeftHand
							{
								OFFSET 3.483560 -0.000000 -0.000000
								CHANNELS 3 Zrotation Yrotation Xrotation
								JOINT LeftFingerBase
								{
									OFFSET 0.000000 0.000000 0.000000
									CHANNELS 3 Zrotation Yrotation Xrotation
									JOINT LeftHandIndex1
									{
										OFFSET 0.715260 -0.000000 -0.000000
										CHANNELS 3 Zrotation Yrotation Xrotation
										End Site
										{
											OFFSET 0.000000 0.000000 0.000000
										}
									}
								}
								JOINT LThumb
								{
									OFFSET 0.000000 0.000000 0.000000
									CHANNELS 3 Zrotation Yrotation Xrotation
									End Site
									{
										OFFSET 0.000000 0.000000 0.000000
									}
								}
							}
						}
					}
				}
				JOINT RightShoulder
				{
					OFFSET 0.000000 0.000000 0.000000
					CHANNELS 3 Zrotation Yrotation Xrotation
					JOINT RightArm
					{
						OFFSET -3.136600 1.374050 -0.404650
						CHANNELS 3 Zrotation Yrotation Xrotation
						JOINT RightForeArm
						{
							OFFSET -5.241900 -0.000000 -0.000000
							CHANNELS 3 Zrotation Yrotation Xrotation
							JOINT RightHand
							{
								OFFSET -3.444170 -0.000000 -0.000000
								CHANNELS 3 Zrotation Yrotation Xrotation
								JOINT RightFingerBase
								{
									OFFSET 0.000000 0.000000 0.000000
									CHANNELS 3 Zrotation Yrotation Xrotation
									JOINT RightHandIndex1
									{
										OFFSET -0.622530 -0.000000 -0.000000
										CHANNELS 3 Zrotation Yrotation Xrotation
										End Site
										{
											OFFSET 0.000000 0.000000 0.000000
										}
									}
								}
								JOINT RThumb
								{
									OFFSET 0.000000 0.000000 0.000000
									CHANNELS 3 Zrotation Yrotation Xrotation
									End Site
									{
										OFFSET 0.000000 0.000000 0.000000
									}
								}
							}
						}
					}
				}
			}
		}
	}
}
MOTION
Frames: 8
Frame Time: 0.008333
8.159990 17.415360 -38.652671 3.281037 9.477339 8.351915 -2.316027 2.025089 4.021611 -20.366118 2.871889 0.807417 -4.064604 -0.607221 3.362079 1.693146 -1.841873 10.729320 0.080000 -1.824000 -5.019500 0.079784 1.279047 -3.421987 3.859467 15.143037 -30.899015 2.014569 -8.867343 18.968216 2.968269 -11.677643 -3.337330 -0.556500 4.778700 -13.278400 -2.784497 -3.649913 -4.238690 1.310410 -4.746407 -5.504663 5.372237 -3.076244 6.116728 -10.217836 -1.438182 -18.295119 3.784236 0.605555 7.072650 4.887500 -0.263700 9.737000 -0.489223 -8.285595 -0.316481 -76.958239 -24.399054 52.130535 18.786725 -26.718621 -6.009349 0.270537 1.341344 -8.757927 17.168286 -23.478017 -7.200800 -7.125000 0.000000 0.000000 -7.809500 4.343800 7.264700 -0.004469 7.685078 0.495384 76.001968 -14.857137 39.459654 -13.705780 21.150873 -4.051612 2.660326 2.324720 -11.741541 -24.972206 -23.235009 12.455300 7.125000 0.000000 0.000000 1.577100 -57.289800 -0.474800 
8.156503 17.405770 -38.419036 3.114043 9.437604 8.397589 -2.269365 2.110731 4.108103 -20.082945 3.116278 1.411314 -4.025657 -0.623394 3.448725 1.709721 -1.971957 10.140408 0.110300 -2.141200 -5.896100 0.097081 1.309500 -3.472129 2.571062 18.222949 -30.513361 2.157592 -8.563454 17.935379 3.338543 -12.656512 -6.263090 -0.571700 4.842200 -13.459100 -2.709093 -3.676942 -4.476397 1.352000 -4.781830 -5.503960 5.520295 -3.123020 6.345757 -10.099276 -1.338979 -18.735939 3.527659 0.732490 7.312491 4.662600 -0.250200 9.998000 -0.383109 -8.279271 -0.346379 -77.081459 -24.899762 51.718096 19.278496 -27.222179 -6.259561 0.260732 1.324395 -8.465466 17.617794 -23.273190 -7.352700 -7.125000 0.000000 0.000000 -7.506700 4.493900 6.956600 0.098998 7.589069 0.449919 75.943320 -15.156912 38.463154 -13.040787 20.400821 -3.759646 2.724367 2.099192 -10.737098 -25.391469 -21.674357 11.852700 7.125000 0.000000 0.000000 0.624500 -55.523800 -0.161300 
8.150837 17.388008 -38.187581 3.069056 9.428456 8.424650 -2.194597 2.197596 4.185957 -19.940534 3.347458 2.123403 -3.988290 -0.642071 3.530308 1.694778 -2.021923 9.526371 0.162200 -2.594900 -7.152800 0.061791 1.354341 -3.513715 1.196405 21.239372 -30.359974 2.212785 -8.463989 17.414209 3.640676 -13.574045 -8.998057 -0.581100 4.881000 -13.569500 -2.682833 -3.689648 -4.708032 1.382679 -4.792876 -5.508069 5.801606 -3.154846 6.418827 -10.644602 -1.370290 -18.702022 3.622904 0.865344 7.471812 4.898700 -0.237600 10.066200 -0.373696 -8.234496 -0.366846 -77.500859 -25.281301 51.225232 19.657222 -27.629188 -6.486197 0.298610 1.330627 -8.190010 17.632866 -23.804393 -7.494100 -7.125000 0.000000 0.000000 -7.558700 3.947400 7.083500 0.100829 7.523690 0.448481 75.828069 -15.657494 37.305243 -12.437980 19.756687 -3.535788 2.795811 1.942556 -9.743084 -25.948809 -20.758266 11.626900 7.125000 0.000000 0.000000 -0.249300 -54.526500 0.058400 
8.144625 17.387245 -37.954165 3.242015 9.471170 8.495955 -2.109089 2.256664 4.219093 -20.006010 3.463976 2.789234 -3.966764 -0.664257 3.569239 1.621329 -1.879529 9.366611 0.186700 -2.782700 -7.674400 0.052758 1.416063 -3.512988 -0.534704 24.414977 -30.051474 2.252348 -8.363985 16.916540 3.882086 -14.460286 -12.297522 -0.520300 4.622800 -12.835700 -2.869362 -3.817023 -4.965658 1.366496 -4.915240 -5.504311 5.781835 -3.231482 6.486423 -10.908832 -1.361203 -18.457805 3.913874 0.938464 7.500847 5.206900 -0.188700 9.966400 -0.427667 -8.177009 -0.344889 -77.259655 -25.545027 50.822190 20.009372 -28.004042 -6.711150 0.371925 1.333287 -8.625313 16.926277 -24.799932 -7.391700 -7.125000 0.000000 0.000000 -8.114900 3.065300 7.748600 0.032970 7.477554 0.464741 76.116907 -16.142441 36.617909 -11.964724 19.308719 -3.426679 2.897936 1.987808 -9.742592 -27.085424 -21.321476 12.490200 7.125000 0.000000 0.000000 -1.474200 -55.386000 0.375900 
8.138414 17.369483 -37.718351 3.427586 9.476357 8.649566 -2.005382 2.304008 4.246925 -20.082208 3.556574 3.342590 -3.950257 -0.690550 3.596487 1.604505 -1.903033 9.409847 0.192700 -2.827200 -7.798100 -0.009633 1.467074 -3.567516 -0.907170 24.390309 -30.370627 2.291474 -8.321404 16.698302 3.315719 -13.053745 -13.085044 -0.539600 4.706600 -13.073700 -3.062603 -3.937045 -5.271973 1.324806 -5.017414 -5.487966 5.466915 -3.292933 6.710835 -10.441644 -1.221418 -18.536242 3.947773 0.975328 7.512341 5.111400 -0.122900 9.941500 -0.412595 -8.152854 -0.315179 -76.780840 -25.929677 50.154725 20.405371 -28.411648 -6.968835 0.457646 1.327124 -8.863919 16.084802 -25.734977 -7.178300 -7.125000 0.000000 0.000000 -8.744400 2.281600 8.490000 0.025314 7.421898 0.445833 76.716043 -16.293159 35.534918 -11.416714 18.718439 -3.237746 2.968119 1.830514 -9.505490 -28.033797 -20.270137 12.325000 7.125000 0.000000 0.000000 -2.784000 -54.254800 0.633600 
8.134055 17.330253 -37.488857 3.603142 9.309589 8.676066 -1.915293 2.369095 4.291130 -20.164984 3.853645 3.966412 -3.918683 -0.716391 3.649109 1.617743 -2.046744 9.274700 0.243400 -3.175100 -8.766500 -0.063394 1.474328 -3.607856 -1.084161 24.540164 -30.578992 2.286020 -8.317113 16.569628 3.230838 -12.773857 -12.196305 -0.722500 5.431600 -15.143700 -3.302050 -3.997742 -5.324149 1.319257 -5.065577 -5.483454 5.465774 -3.336305 6.821282 -10.142494 -1.008042 -18.741285 3.832376 1.184653 7.621901 4.940400 -0.025100 10.036600 -0.347369 -8.155265 -0.321448 -76.642617 -26.232400 49.736300 20.907564 -28.891602 -7.232580 0.414160 1.313893 -9.122474 16.712924 -25.521712 -7.445200 -7.125000 0.000000 0.000000 -8.328400 2.402800 8.058600 0.096940 7.377024 0.415665 76.901747 -16.316814 33.808360 -10.738937 17.904795 -2.955949 2.932324 1.600320 -7.945300 -27.104089 -18.853368 11.062700 7.125000 0.000000 0.000000 -1.942400 -52.380300 0.353000 
8.127953 17.294947 -37.259690 3.623964 9.099454 8.617245 -1.840921 2.472157 4.364853 -20.057278 4.236559 4.672306 -3.875619 -0.745000 3.714705 1.583220 -2.030387 9.223020 0.305400 -3.553100 -9.822600 -0.107610 1.436907 -3.620501 -0.946021 24.779714 -30.698474 2.269128 -8.388665 16.708583 3.395479 -13.204514 -11.776737 -0.786800 5.662400 -15.807900 -3.455038 -4.104427 -5.258572 1.372367 -5.208670 -5.505062 5.807912 -3.432591 6.772375 -10.319712 -0.825700 -18.855446 3.766307 1.508857 7.751292 4.934100 0.084600 10.132500 -0.297793 -8.148080 -0.357548 -76.786220 -26.292000 49.284689 21.291351 -29.264007 -7.422992 0.353037 1.291735 -9.425967 17.359497 -24.899217 -7.614600 -7.125000 0.000000 0.000000 -7.854100 2.941400 7.512600 0.190715 7.336923 0.406740 76.540928 -16.528427 32.715281 -10.159016 17.197541 -2.724201 2.896519 1.435896 -6.445203 -26.192424 -17.863946 10.113000 7.125000 0.000000 0.000000 -1.084900 -51.055800 0.161900 
8.116946 17.274569 -37.020607 3.783726 8.919172 8.674405 -1.737226 2.579187 4.445535 -20.062930 4.535941 5.427328 -3.839857 -0.780273 3.764891 1.579850 -2.128186 9.299252 0.322900 -3.652400 -10.100700 -0.207470 1.376506 -3.687373 0.478774 21.902731 -31.319552 2.252949 -8.481762 17.052090 3.041523 -12.087668 -8.632581 -0.844900 5.862700 -16.386600 -3.753500 -4.245071 -5.373876 1.413810 -5.382345 -5.537501 6.130865 -3.534207 6.695317 -10.543098 -0.690057 -18.720273 3.718102 1.755657 7.768881 4.945100 0.172000 10.061500 -0.275278 -8.111901 -0.385814 -77.087057 -26.087423 48.620029 21.550013 -29.576397 -7.595134 0.358431 1.285493 -9.168761 17.504202 -25.022952 -7.716300 -7.125000 0.000000 0.000000 -7.776300 2.796200 7.457600 0.257451 7.282216 0.419629 76.185945 -16.898169 31.988854 -9.707078 16.667041 -2.572612 2.908284 1.350486 -5.226853 -25.931678 -17.547071 9.833700 7.125000 0.000000 0.000000 -0.853900 -50.643600 0.118800 
